<svg xmlns="http://www.w3.org/2000/svg" width="32" height="32" viewBox="0 0 32 32" fill="none">
  <rect width="32" height="32" rx="8" fill="#2A4494"/>
  <path d="M13.5 8A2.5 2.5 0 0 1 16 10.5v11a2.5 2.5 0 0 1-4.96.44 2.5 2.5 0 0 1-2.96-3.08 3 3 0 0 1-.34-5.58 2.5 2.5 0 0 1 1.32-4.24 2.5 2.5 0 0 1 1.98-3A2.5 2.5 0 0 1 13.5 8Z" fill="#ffffff" stroke="#ffffff" stroke-width="1.5"/>
  <path d="M18.5 8A2.5 2.5 0 0 0 16 10.5v11a2.5 2.5 0 0 0 4.96.44 2.5 2.5 0 0 0 2.96-3.08 3 3 0 0 0 .34-5.58 2.5 2.5 0 0 0-1.32-4.24 2.5 2.5 0 0 0-1.98-3A2.5 2.5 0 0 0 18.5 8Z" fill="#ffffff" stroke="#ffffff" stroke-width="1.5"/>
</svg>